<?xml version="1.0" encoding="UTF-8"?>
<svg xmlns="http://www.w3.org/2000/svg" version="1.1" viewBox="0 0 510 510">
  <defs>
    <style>
      .cls-1 {
        fill-rule: evenodd;
      }

      .cls-1, .cls-2 {
        fill: #5fa644;
      }
    </style>
  </defs>
  <!-- Generator: Adobe Illustrator 28.6.0, SVG Export Plug-In . SVG Version: 1.2.0 Build 709)  -->
  <g>
    <g id="Layer_1">
      <path class="cls-2" d="M328.55,107.03c1.58-6.64,1.08-11.6.47-16.6-1.42-11.67,1.24-23.14,1.92-34.72.16-2.75,2.02-4.37,4.7-3.79,9.19,2,18.54-.03,27.75,1.38,8.13,1.24,9.57,2.84,11.05,10.73,2.43,12.91-1.29,25.34-3.02,37.81-1.77,12.79-.02,25.46-.99,38.14-.28,3.72,1.83,5.41,4.23,7.51,6.7,5.84,13.11,12,19.74,17.93,4.49,4.02,6.85,8.94,8.49,14.78,3.58,12.75,5.04,25.79,5.11,38.83.19,35.62,3.07,71.08,6.02,106.5,1.4,16.83,6.64,33.3,9.27,50.07,1.89,12.05,1.58,23.89-4.16,35.63-5.42,11.1-13.66,16.15-25.1,16.88-10.02.64-20.1.72-30.15.54-13.6-.24-26.85,1.82-40.27,3.82-26.96,4.02-53.9,9.44-81.48,2.01-22.67-6.1-46.12-3.92-69.25-1.97-13.96,1.18-27.83-.2-41.62-1.11-12.97-.85-23.84-8.42-33.36-17.12-5.67-5.18-7.34-11.73-7.33-19.76.05-48.08,7.85-95.62,9.31-143.58.67-22,.83-44.02,1.35-66.03.15-6.18.74-12.35,1.16-18.53.1-1.53-.15-3.34.57-4.53,9.22-15.15,17.81-30.82,33.69-40.51,9.59-5.84,18.44-12.75,27.16-19.83,19.86-16.13,41.51-29.68,63.28-42.98,5.6-3.42,10.74-7.47,16.41-10.83,11.71-6.92,21.99-6.88,35.26,3.09,13.23,9.95,22.94,22.87,32.24,36.26,4.77,6.87,9.11,14.2,17.54,19.97ZM106.27,320.11c-2.36,26.91-5.31,53.76-3.08,80.88.45,5.52,1.87,9.73,5.76,13.19,5.61,4.98,11.78,8.43,19.75,8.38,9.27-.06,18.54.41,27.8-.54,23.84-2.44,47.67-4.21,71.59-.58,8.38,1.27,16.75,3.43,25.32,2.72,17.68-1.46,35.41-2.71,53-4.95,16.89-2.14,33.68-4.24,50.78-3.69,8.84.28,17.75-.51,26.57-1.43,12.91-1.34,22.2-8.71,24.22-19.59,1.55-8.32,2.05-16.72.73-25.34-4.68-30.48-13.86-60.3-13.54-91.54.25-24.34-3.13-48.62-1.2-72.99.8-10.11-1.4-20-2.27-29.99-.4-4.57-3.31-7.65-6.6-10.52-9.89-8.62-19.38-17.74-29.63-25.92-23.93-19.09-46.18-39.67-62.69-65.82-3.52-5.58-8.45-9.99-13.35-14.43-5.05-4.58-10.04-5.19-15.67-1.53-7.74,5.03-15.37,10.24-23.25,15.04-30.64,18.66-60.45,38.62-91.62,56.49-25.21,14.46-40.89,35.55-38.15,67.07.86,9.88.72,20.11.14,30.09-1.85,31.65-.97,63.44-4.63,94.99ZM364.82,138.44c-.25-19.27,1.32-36.19,3.23-53.09.56-4.99.52-10.05.74-15.08.24-5.59-1.95-8.79-8.02-8.82-6.57-.03-13.16-.22-19.71-.73-4.62-.36-5.74,1.61-6.32,5.9-1.82,13.53-.79,27.03-.4,40.55.13,4.39,1.78,8.15,5.48,11.04,7.85,6.14,15.51,12.52,25.01,20.23Z"/>
      <g>
        <path class="cls-1" d="M255.22,179.28c.91.03,1.83.04,2.74.06,11.75,2.05,20.2,14.72,19.85,26.98-.3,10.36-6.37,20.17-15.4,21.2-24.76,2.82-34.01-44.24-7.19-48.25ZM243.09,202.23c-.16,10.67,8.65,20.72,17.77,20.31,20.23-.96,12.66-39.95-6.92-36.11-7.37,1.47-10.75,8.8-10.85,15.8Z"/>
        <path class="cls-1" d="M304.27,184.27c15.02-2.88,22.43,10.03,22.13,23.71-.33,14.36-13.23,28.73-27.6,23.13-6.45-2.51-11.39-11.93-11.7-20.15-.46-11.79,7.07-24.76,17.16-26.69ZM309.4,226.93c10.74-1.83,14.85-24.87,5.73-33.57-2.49-2.39-7.26-3.13-9.32-2.98-20.13,1.38-16.41,39.98,3.6,36.55Z"/>
        <path class="cls-1" d="M208.35,198.69c13.86-1.94,25.67,12.54,27.12,23.27,1.67,12.44-4.72,21.6-14.33,22.33-12.69.96-26.59-11.59-27.03-26.58-.27-9.17,4.36-17.63,14.24-19.02ZM201.46,210.14c-6.64,13.31,6.51,30.25,17.58,29.68,6.91-.37,11.21-6.15,11.88-12.44,1.42-13.32-10.18-23.77-19.37-23.08-4.88.35-8.62,2.93-10.08,5.85Z"/>
        <path class="cls-1" d="M270.11,352.04c-.93-.01-1.86-.04-2.76-.06-2.46-1.26-4.42-5.85-2.56-9.45,1.31-2.53,9.14-4.85,12.31-6.36,12.83-6.03,24.94-14.36,32.06-24.7,5.27-7.67,10.09-18.13,8.48-32.96-1.44-13.18-11.09-24.58-20.35-29.2-27.91-13.94-63.35,9.82-74.07,25.42-3.54,5.16-6.73,13.4-7.06,19.74-1.1,20.46,18.23,32.58,36.83,32.88,18.68.27,32.35-10.05,39.16-21.23.79-1.29,1.82-6.65,6.21-5.93,7.75,1.26,1.09,12.95.24,14.38-3.2,5.27-6.57,9.25-9.66,11.93-16.37,14.14-46.02,16.02-64.72,2.96-13.39-9.33-23.3-28.1-15.49-48.95,9.75-25.94,43.43-50.1,77.31-46.36,24.61,2.73,42.25,24.89,41.37,52.33-.63,19.28-9.92,32.53-19.73,42.11-10.39,10.14-22.51,17.64-37.55,23.48Z"/>
        <path class="cls-1" d="M160.67,254.53c.02-.93.05-1.85.06-2.77,2.01-13.34,14.92-18.1,28.45-12.62,8.5,3.44,15.64,12.85,16.67,21.38,1.05,8.99-3.14,15.67-10.36,18.02-14.27,4.6-26.18-4.16-31.22-12.87-1.72-2.98-2.36-5.35-3.62-11.13ZM170.26,245.9c-10.38,12.54,8.72,31.5,21.45,29.23,5.79-1.05,9.65-7.22,8.64-15.28-1.15-9.13-11.31-18.53-21.15-17.61-4.09.4-7.26,1.66-8.93,3.67Z"/>
      </g>
    </g>
  </g>
</svg>