<?xml version="1.0" encoding="UTF-8"?>
<svg xmlns="http://www.w3.org/2000/svg" version="1.1" viewBox="0 0 510 510">
  <defs>
    <style>
      .cls-1 {
        fill: #5fa644;
      }
    </style>
  </defs>
  <!-- Generator: Adobe Illustrator 28.6.0, SVG Export Plug-In . SVG Version: 1.2.0 Build 709)  -->
  <g>
    <g id="Layer_1">
      <path class="cls-1" d="M328.55,107.03c1.58-6.64,1.08-11.6.47-16.6-1.42-11.67,1.24-23.14,1.92-34.72.16-2.75,2.02-4.37,4.7-3.79,9.19,2,18.54-.03,27.75,1.38,8.13,1.24,9.57,2.84,11.05,10.73,2.43,12.91-1.29,25.34-3.02,37.81-1.77,12.79-.02,25.46-.99,38.14-.28,3.72,1.83,5.41,4.23,7.51,6.7,5.84,13.11,12,19.74,17.93,4.49,4.02,6.85,8.94,8.49,14.78,3.58,12.75,5.04,25.79,5.11,38.83.19,35.62,3.07,71.08,6.02,106.5,1.4,16.83,6.64,33.3,9.27,50.07,1.89,12.05,1.58,23.89-4.16,35.63-5.42,11.1-13.66,16.15-25.1,16.88-10.02.64-20.1.72-30.15.54-13.6-.24-26.85,1.82-40.27,3.82-26.96,4.02-53.9,9.44-81.48,2.01-22.67-6.1-46.12-3.92-69.25-1.97-13.96,1.18-27.83-.2-41.62-1.11-12.97-.85-23.84-8.42-33.36-17.12-5.67-5.18-7.34-11.73-7.33-19.76.05-48.08,7.85-95.62,9.31-143.58.67-22,.83-44.02,1.35-66.03.15-6.18.74-12.35,1.16-18.53.1-1.53-.15-3.34.57-4.53,9.22-15.15,17.81-30.82,33.69-40.51,9.59-5.84,18.44-12.75,27.16-19.83,19.86-16.13,41.51-29.68,63.28-42.98,5.6-3.42,10.74-7.47,16.41-10.83,11.71-6.92,21.99-6.88,35.26,3.09,13.23,9.95,22.94,22.87,32.24,36.26,4.77,6.87,9.11,14.2,17.54,19.97ZM106.27,320.11c-2.36,26.91-5.31,53.76-3.08,80.88.45,5.52,1.87,9.73,5.76,13.19,5.61,4.98,11.78,8.43,19.75,8.38,9.27-.06,18.54.41,27.8-.54,23.84-2.44,47.67-4.21,71.59-.58,8.38,1.27,16.75,3.43,25.32,2.72,17.68-1.46,35.41-2.71,53-4.95,16.89-2.14,33.68-4.24,50.78-3.69,8.84.28,17.75-.51,26.57-1.43,12.91-1.34,22.2-8.71,24.22-19.59,1.55-8.32,2.05-16.72.73-25.34-4.68-30.48-13.86-60.3-13.54-91.54.25-24.34-3.13-48.62-1.2-72.99.8-10.11-1.4-20-2.27-29.99-.4-4.57-3.31-7.65-6.6-10.52-9.89-8.62-19.38-17.74-29.63-25.92-23.93-19.09-46.18-39.67-62.69-65.82-3.52-5.58-8.45-9.99-13.35-14.43-5.05-4.58-10.04-5.19-15.67-1.53-7.74,5.03-15.37,10.24-23.25,15.04-30.64,18.66-60.45,38.62-91.62,56.49-25.21,14.46-40.89,35.55-38.15,67.07.86,9.88.72,20.11.14,30.09-1.85,31.65-.97,63.44-4.63,94.99ZM364.82,138.44c-.25-19.27,1.32-36.19,3.23-53.09.56-4.99.52-10.05.74-15.08.24-5.59-1.95-8.79-8.02-8.82-6.57-.03-13.16-.22-19.71-.73-4.62-.36-5.74,1.61-6.32,5.9-1.82,13.53-.79,27.03-.4,40.55.13,4.39,1.78,8.15,5.48,11.04,7.85,6.14,15.51,12.52,25.01,20.23Z"/>
      <path class="cls-1" d="M168.44,216.92c1.68-26.11,11.99-46.97,36.24-59.41,3.02-1.55,6.07-2.73,9.51-2.68,9.39.13,18.56.88,27.48,4.55,8.97,3.68,18.3,6.43,25.98,12.73,14.87,12.19,27.76,37.27,18.13,59.39-1.58,3.62-3.08,6.9,1.89,9.74,2.4,1.37,3.53,4.87,5.47,7.2,2.38,2.85,3.52,5.78,1.16,9.04-2.07,2.88-1.02,5.25.8,7.55,7.07,8.94,13.17,18.58,19.99,27.7,9.62,12.86,18.63,26.27,24.73,41.25,2.72,6.69,2.5,13.68-2.84,19.41-4.58,4.91-10.2,8.5-16.53,10.71-7.86,2.74-14.88.74-20.7-5.01-6.34-6.26-11.03-13.87-16.38-20.95-10.46-13.83-16.98-29.91-25.28-44.97-1.68-3.05-2.98-5.05-6.74-4.47-3.13.48-5.26-1.27-6.86-3.78-.75-1.17-1.47-2.35-2.2-3.53-3.42-5.6-7.19-8.37-14.97-8.3-27.65.25-44.24-10.8-55.65-35.63-2.24-4.88-3.25-12.18-3.26-20.54ZM179.11,223.99c-.5,15.82,7.93,34.72,26.99,39.45,5.36,1.33,10.86,2.59,16.34,2.83,6.32.28,12.84.06,18.59-3.29,7.68-4.48,15.28-9.1,22.93-13.65,9.74-5.79,15.37-15.21,18.03-25.36,4.46-16.99-1.05-32.42-12.29-45.57-4.52-5.29-10.48-9.97-17.71-9.47-5.91.41-10.93-1.81-15.66-3.71-7.99-3.21-15.98-3.28-23.2-.58-13.5,5.04-23.11,14.75-28.17,28.73-3.83,10.59-4.26,21.68-5.84,30.62ZM261.58,284.01c8.33,14.46,16.15,27.89,23.82,41.41,4.8,8.47,9.69,16.86,15.75,24.53,2.6,3.29,5.78,5.77,9.88,5.05,7.18-1.26,13.96-3.94,19.2-9.32,3.77-3.86,5.53-8.21,2.4-13.49-1.83-3.09-3.14-6.47-4.89-9.62-9.47-17.06-21.71-32.25-32.64-48.33-1.95-2.87-3.87-6.05-6.97-8.17-8.87,5.99-17.59,11.88-26.55,17.93ZM288.95,252.99c-1.02-2.39-2.42-4.13-4.27-5.4-1.51-1.04-2.47.44-3.58,1.13-7.51,4.72-15.03,9.44-22.54,14.17-4.21,2.65-8.41,5.31-12.59,8.01-2.65,1.71-3.76,3.53-1.56,6.72,1.96,2.84,3.76,3.65,6.83,1.96,12.42-6.85,24.16-14.7,35.26-23.51,1.03-.82,1.7-2.11,2.45-3.07Z"/>
    </g>
  </g>
</svg>